<?xml version="1.0" encoding="UTF-8" standalone="no"?>
<svg
   xmlns:dc="http://purl.org/dc/elements/1.1/"
   xmlns:cc="http://creativecommons.org/ns#"
   xmlns:rdf="http://www.w3.org/1999/02/22-rdf-syntax-ns#"
   xmlns:svg="http://www.w3.org/2000/svg"
   xmlns="http://www.w3.org/2000/svg"
   xmlns:sodipodi="http://sodipodi.sourceforge.net/DTD/sodipodi-0.dtd"
   xmlns:inkscape="http://www.inkscape.org/namespaces/inkscape"
   width="367.13998"
   height="367.13995"
   viewBox="0 0 367.13998 367.13995"
   version="1.1"
   id="svg2216"
   inkscape:version="1.0.1 (3bc2e813f5, 2020-09-07)"
   sodipodi:docname="traditional-circle-monogram-010101.svg">
  <defs
     id="defs2210" />
  <sodipodi:namedview
     id="base"
     pagecolor="#000"
     bordercolor="#000"
     borderopacity="1.0"
     inkscape:pageopacity="0.0"
     inkscape:pageshadow="2"
     inkscape:zoom="1.4"
     inkscape:cx="232.35472"
     inkscape:cy="176.35957"
     inkscape:document-units="px"
     inkscape:current-layer="layer1"
     showgrid="false"
     units="px"
     inkscape:window-width="1366"
     inkscape:window-height="705"
     inkscape:window-x="-8"
     inkscape:window-y="-8"
     inkscape:window-maximized="1"
     fit-margin-top="10"
     fit-margin-left="10"
     fit-margin-bottom="10"
     fit-margin-right="10"
     inkscape:showpageshadow="false"
     scale-x="1"
     inkscape:document-rotation="0" />
  <metadata
     id="metadata2213">
    <rdf:RDF>
      <cc:Work
         rdf:about="">
        <dc:format>image/svg+xml</dc:format>
        <dc:type
           rdf:resource="http://purl.org/dc/dcmitype/StillImage" />
        <dc:title />
      </cc:Work>
    </rdf:RDF>
  </metadata>
  <g
     inkscape:label="Layer 1"
     inkscape:groupmode="layer"
     id="layer1"
     transform="translate(33.179823,32.465521)">

<g
       aria-label="a"
       style="font-style:normal;font-variant:normal;font-weight:normal;font-stretch:normal;font-size:5.33333px;line-height:1.25;font-family:'Open Sans';-inkscape-font-specification:'Open Sans, Normal';font-variant-ligatures:normal;font-variant-caps:normal;font-variant-numeric:normal;font-feature-settings:normal;text-align:start;letter-spacing:0px;word-spacing:0px;writing-mode:lr-tb;text-anchor:start;fill:#0000ff;fill-opacity:1;stroke:none"
       id="text824"
       transform="translate(251.33802,-148.62699)">
      <path
         d="m -143.77561,285.44837 c -16.22179,-0.42318 -60.17005,-1.199 -63.27334,-2.32747 5.07812,-26.80122 17.14741,-69.75341 63.3484,-80.36925 1.83376,1.6927 0.98288,26.62576 0.98288,30.85753 0.14106,1.26953 0.0705,3.10329 -0.21159,5.5013 -0.14106,2.53906 -0.21159,4.37283 -0.21159,5.5013 0,24.96745 -0.21159,38.57964 -0.63476,40.83659 z m 30.6143,-125.32412 c -39.47978,2.12066 -78.17525,29.87577 -94.14702,49.65732 -18.05556,24.54427 -29.76799,50.2466 -31.60175,77.61205 -2.53906,36.95747 7.34987,68.27968 28.50873,98.04313 7.33506,10.43837 12.97742,13.58073 17.81994,17.4628 -0.95493,-16.21 -0.96621,-27.83469 -1.56064,-43.60678 -0.42318,-1.83377 -3.31489,-8.6046 -8.67513,-20.3125 -4.09072,-8.6046 -5.21919,-16.0102 -3.38542,-22.21679 13.96484,-1.55165 57.63098,-1.55165 62.42699,0 0.56423,12.13107 0.84635,29.4108 0.84635,51.83919 0.14106,24.96745 -0.6575,52.48977 -0.37538,62.3639 12.07987,6.19069 21.20775,4.47986 29.53023,6.73681 0.7053,-34.55946 0.60861,-80.66755 0.46755,-136.80905 -0.14106,-74.90234 0.14555,-124.26617 0.14555,-140.77008 z"
         style="font-style:normal;font-variant:normal;font-weight:normal;font-stretch:normal;font-size:433.333px;font-family:'SunCatcherStudioFont left';-inkscape-font-specification:'SunCatcherStudioFont left';fill:#ffffff;fill-opacity:1"
         id="path822"
         inkscape:connector-curvature="0"
         sodipodi:nodetypes="cccccsccccccccccccccc" />
    </g>



<g
       aria-label="a"
       style="font-style:normal;font-variant:normal;font-weight:normal;font-stretch:normal;font-size:5.33333px;line-height:1.25;font-family:'Open Sans';-inkscape-font-specification:'Open Sans, Normal';font-variant-ligatures:normal;font-variant-caps:normal;font-variant-numeric:normal;font-feature-settings:normal;text-align:start;letter-spacing:0px;word-spacing:0px;writing-mode:lr-tb;text-anchor:start;fill:#ffffff;fill-opacity:1;stroke:none"
       id="text828"
       transform="translate(284.90946,-148.62699)">
      <path
         d="m -89.229973,284.26496 c -1.41059,-20.73568 -1.484557,-64.19305 -0.07397,-84.50555 27.99955,8.52971 64.76721,55.10604 62.011747,83.87078 -2.680122,-0.28211 -9.050255,-0.21158 -15.53897,0.21159 -6.770833,0.42318 -44.141865,0.56424 -46.39881,0.42318 z M -120.8692,160.59076 c 0,16.36285 0.46521,64.78205 0.32412,139.54334 -0.14106,55.85938 -0.49029,102.83657 0.21501,137.39603 11.99001,-1.71434 21.359074,-2.6438 31.263896,-7.08152 0.282118,-6.06554 -0.728035,-35.87549 -1.010153,-64.93365 -0.282118,-21.72309 0.282118,-38.65017 1.692708,-50.78125 -0.705295,0 37.018385,-0.0705 47.456753,-0.21159 6.911893,-0.14106 11.425782,0.77582 13.541667,2.75065 0.705295,6.34766 -1.057943,13.89432 -5.289714,22.63998 -5.078125,10.72049 -7.899305,17.56185 -8.463541,20.52409 -0.270781,15.43986 -0.661077,27.28082 -2.525381,43.03437 4.231771,-1.55165 10.631746,-8.4567 17.684697,-18.18977 C -8.4650786,363.83362 1.6024319,337.16209 3.7183174,307.5397 6.2573799,272.98024 -3.7097582,243.15974 -22.611668,215.93535 -51.593796,181.84287 -75.137764,166.9133 -120.8692,160.59076 Z"
         style="font-style:normal;font-variant:normal;font-weight:normal;font-stretch:normal;font-size:433.333px;font-family:'SunCatcherStudioFont right';-inkscape-font-specification:'SunCatcherStudioFont right';fill:#ffffff;fill-opacity:1"
         id="path825"
         inkscape:connector-curvature="0"
         sodipodi:nodetypes="cccccccccccccccccccc" />
    </g>

    


    <path
       style="fill:#010101;fill-opacity:1;fill-rule:evenodd;stroke-width:1.06113"
       d="M 150.39016,-22.465521 A 173.57001,173.57001 0 0 0 -23.179823,151.10445 173.57001,173.57001 0 0 0 150.39016,324.67444 a 173.57001,173.57001 0 0 0 173.57,-173.56999 173.57001,173.57001 0 0 0 -173.57,-173.569971 z m 0,10.84808 A 162.72188,162.72188 0 0 1 313.11203,151.10445 162.72188,162.72188 0 0 1 150.39016,313.82632 162.72188,162.72188 0 0 1 -12.331693,151.10445 162.72188,162.72188 0 0 1 150.39016,-11.617441 Z"
       id="path12"
       inkscape:connector-curvature="0" />
  </g>
</svg>
